<?xml version="1.0" standalone="no"?>
<!DOCTYPE svg PUBLIC "-//W3C//DTD SVG 20010904//EN"
 "http://www.w3.org/TR/2001/REC-SVG-20010904/DTD/svg10.dtd">
<svg version="1.0" xmlns="http://www.w3.org/2000/svg"
 width="500.000000pt" height="500.000000pt" viewBox="0 0 500.000000 500.000000"
 preserveAspectRatio="xMidYMid meet">

<g transform="translate(0.000000,500.000000) scale(0.100000,-0.100000)"
fill="#000000" stroke="none">
<path d="M2128 3489 c-10 -5 -23 -29 -29 -52 -7 -30 -19 -47 -39 -59 -16 -9
-32 -27 -34 -40 -3 -13 -14 -122 -25 -243 -12 -139 -23 -221 -30 -223 -42 -14
-56 -82 -21 -104 23 -15 27 -38 5 -38 -8 0 -24 -9 -35 -20 -17 -17 -20 -33
-20 -123 0 -110 13 -147 51 -147 18 0 19 -9 19 -292 l-1 -293 -32 -20 c-25
-16 -33 -28 -35 -58 -4 -42 10 -64 45 -78 31 -12 33 -78 3 -97 -24 -15 -27
-64 -4 -86 14 -14 79 -16 565 -16 360 0 557 4 570 10 27 15 26 75 -1 92 -20
13 -20 24 -20 583 0 559 0 570 20 583 27 17 28 77 1 92 -13 6 -137 10 -335 10
l-316 0 0 23 c0 12 -9 119 -20 237 -18 190 -23 217 -42 237 -12 13 -27 23 -35
23 -8 0 -13 12 -13 29 0 15 -9 40 -21 55 -18 23 -27 26 -87 26 -37 0 -75 -5
-84 -11z m218 -146 c17 -17 11 -18 -131 -21 -81 -1 -150 0 -153 2 -3 3 1 12 8
21 10 12 37 15 136 15 103 0 125 -3 140 -17z m14 -63 c0 -6 -58 -10 -155 -10
-97 0 -155 4 -155 10 0 6 58 10 155 10 97 0 155 -4 155 -10z m20 -145 l0 -25
-170 0 -170 0 0 25 0 25 170 0 170 0 0 -25z m0 -64 c0 -5 3 -16 6 -25 5 -14
-14 -16 -175 -16 l-181 0 0 25 0 25 175 0 c100 0 175 -4 175 -9z m20 -181 c0
-19 -7 -20 -194 -20 -189 0 -194 1 -189 20 5 19 14 20 194 20 182 0 189 -1
189 -20z m668 -77 l3 -23 -555 0 c-532 0 -556 1 -556 18 0 10 3 22 7 25 3 4
252 6 552 5 l546 -3 3 -22z m-1098 -228 c0 -63 -4 -115 -8 -115 -24 0 -32 30
-32 115 0 85 8 115 32 115 4 0 8 -52 8 -115z m178 -47 c-2 -102 -6 -143 -15
-146 -10 -3 -13 30 -13 142 0 124 2 146 15 146 13 0 15 -20 13 -142z m-178
-763 c0 -32 -4 -45 -14 -45 -25 0 -36 56 -14 78 21 21 28 13 28 -33z m1098
-217 l-3 -23 -544 -3 c-331 -1 -549 2 -554 7 -5 5 -7 17 -4 25 6 14 66 16 557
16 l551 0 -3 -22z"/>
</g>
</svg>
